<svg width="210" height="54" viewBox="0 0 210 54" fill="none" xmlns="http://www.w3.org/2000/svg">
<mask id="path-1-inside-1_327_47" fill="white">
<path fill-rule="evenodd" clip-rule="evenodd" d="M112.077 15.3135L105 0L97.9228 15.3135H10C4.47715 15.3135 0 19.7907 0 25.3135V44.0001C0 49.5229 4.47715 54.0001 10 54.0001H200C205.523 54.0001 210 49.5229 210 44.0001V25.3135C210 19.7907 205.523 15.3135 200 15.3135H112.077Z"/>
</mask>
<g filter="url(#filter0_i_327_47)">
<path fill-rule="evenodd" clip-rule="evenodd" d="M112.077 15.3135L105 0L97.9228 15.3135H10C4.47715 15.3135 0 19.7907 0 25.3135V44.0001C0 49.5229 4.47715 54.0001 10 54.0001H200C205.523 54.0001 210 49.5229 210 44.0001V25.3135C210 19.7907 205.523 15.3135 200 15.3135H112.077Z" fill="url(#paint0_linear_327_47)"/>
</g>
<path d="M105 0L105.726 -0.335616L105 -1.90694L104.274 -0.335616L105 0ZM112.077 15.3135L111.351 15.6491L111.566 16.1135H112.077V15.3135ZM97.9228 15.3135V16.1135H98.4343L98.649 15.6491L97.9228 15.3135ZM104.274 0.335616L111.351 15.6491L112.803 14.9779L105.726 -0.335616L104.274 0.335616ZM98.649 15.6491L105.726 0.335616L104.274 -0.335616L97.1966 14.9779L98.649 15.6491ZM10 16.1135H97.9228V14.5135H10V16.1135ZM0.8 25.3135C0.8 20.2325 4.91898 16.1135 10 16.1135V14.5135C4.03532 14.5135 -0.8 19.3488 -0.8 25.3135H0.8ZM0.8 44.0001V25.3135H-0.8V44.0001H0.8ZM10 53.2001C4.91898 53.2001 0.8 49.0811 0.8 44.0001H-0.8C-0.8 49.9648 4.03532 54.8001 10 54.8001V53.2001ZM200 53.2001H10V54.8001H200V53.2001ZM209.2 44.0001C209.2 49.0811 205.081 53.2001 200 53.2001V54.8001C205.965 54.8001 210.8 49.9648 210.8 44.0001H209.2ZM209.2 25.3135V44.0001H210.8V25.3135H209.2ZM200 16.1135C205.081 16.1135 209.2 20.2325 209.2 25.3135H210.8C210.8 19.3488 205.965 14.5135 200 14.5135V16.1135ZM112.077 16.1135H200V14.5135H112.077V16.1135Z" fill="white" mask="url(#path-1-inside-1_327_47)"/>
<defs>
<filter id="filter0_i_327_47" x="0" y="0" width="210" height="58.0001" filterUnits="userSpaceOnUse" color-interpolation-filters="sRGB">
<feFlood flood-opacity="0" result="BackgroundImageFix"/>
<feBlend mode="normal" in="SourceGraphic" in2="BackgroundImageFix" result="shape"/>
<feColorMatrix in="SourceAlpha" type="matrix" values="0 0 0 0 0 0 0 0 0 0 0 0 0 0 0 0 0 0 127 0" result="hardAlpha"/>
<feOffset dy="4"/>
<feGaussianBlur stdDeviation="2"/>
<feComposite in2="hardAlpha" operator="arithmetic" k2="-1" k3="1"/>
<feColorMatrix type="matrix" values="0 0 0 0 0 0 0 0 0 0 0 0 0 0 0 0 0 0 0.25 0"/>
<feBlend mode="normal" in2="shape" result="effect1_innerShadow_327_47"/>
</filter>
<linearGradient id="paint0_linear_327_47" x1="178" y1="9.49999" x2="15.1994" y2="68.7737" gradientUnits="userSpaceOnUse">
<stop stop-color="#833AB4"/>
<stop offset="0.474108" stop-color="#E1306C"/>
<stop offset="1" stop-color="#FFDC80"/>
</linearGradient>
</defs>
</svg>
